<svg width="541" height="91" viewBox="0 0 541 91" fill="none" xmlns="http://www.w3.org/2000/svg">
<path d="M91.636 7.53413V15.1807C91.2767 9.10843 86.3888 7.62784 83.9897 7.64658H42.0513C38.993 7.73654 38.2285 10.2329 38.2285 11.4699V26.9879C38.4983 29.5518 40.6646 30.3802 41.714 30.4739H45.7617C68.5635 30.4739 75.7257 45.6171 76.4565 53.245V76.3534C76.0517 82.4706 71.1158 84 68.6985 84H61.1653C67.1019 83.6851 68.7359 78.771 68.8109 76.3534V53.245C66.6072 40.3807 52.5265 37.8393 45.7617 38.1205H39.8026H38.1168C32.0003 37.7156 30.5461 32.8541 30.5836 30.4739V7.53413C30.9434 1.59679 35.7556 0.0374833 38.1168 0H83.9904C90.0619 0.269879 91.6172 5.13521 91.636 7.53413Z" fill="#644BFD"/>
<path d="M91.6372 22.8271V30.4737C91.3685 24.6263 86.5022 22.9396 84.1027 22.8271H76.4571C87.9704 30.5187 91.3735 46.4228 91.6358 53.4134V76.3532C91.4109 82.4255 86.4451 83.981 83.9902 83.9998H76.4008C82.4723 83.6399 83.9902 78.7521 83.9902 76.3532V53.4134C83.9003 44.7323 79.3054 37.1644 77.0192 34.4657C69.4186 24.3002 55.5638 22.471 49.5864 22.8271C46.5282 22.6022 45.8386 20.1845 45.8761 19.0038C46.011 16.0801 48.4059 15.3117 49.5864 15.293H84.1603C90.0969 15.5179 91.6185 20.4094 91.6372 22.8271Z" fill="#644BFD"/>
<path d="M0.00123215 76.4659V68.8193C0.360466 74.8916 5.24845 76.3722 7.64753 76.3534H49.5859C52.6442 76.2635 53.4087 73.7671 53.4087 72.5301V57.0121C53.1389 54.4482 50.9726 53.6198 49.9232 53.5261H45.8756C23.0737 53.5261 15.9115 38.2704 15.1807 30.6426V7.64662C15.5855 1.52935 20.5214 3.8147e-05 22.9387 3.8147e-05H30.4719C24.5353 0.314896 22.9013 5.22895 22.8263 7.64662V30.6426C25.03 43.5068 39.1107 46.1607 45.8756 45.8795H51.8346H53.5205C59.6369 46.2844 61.0911 51.1459 61.0536 53.5261V76.4659C60.6938 82.4032 55.8816 83.9625 53.5205 84H7.64684C1.57533 83.7301 0.0199699 78.8648 0.00123215 76.4659Z" fill="#644BFD"/>
<path d="M-0.000156403 61.1729V53.5263C0.268551 59.3737 5.13486 61.0604 7.53443 61.1729H15.18C3.66666 53.4813 0.263615 37.5772 0.00126648 30.5866V7.64682C0.226135 1.57453 5.19203 0.0189819 7.64687 0.000236511H15.2363C9.16475 0.360077 7.64687 5.24789 7.64687 7.64682V30.5866C7.73681 39.2677 12.3317 46.8356 14.6179 49.5343C22.2185 59.6998 36.0733 61.529 42.0507 61.1729C45.1089 61.3978 45.7985 63.8155 45.761 64.9962C45.6261 67.9199 43.2312 68.6883 42.0507 68.707H7.4768C1.54021 68.4821 0.0185814 63.5906 -0.000156403 61.1729Z" fill="#644BFD"/>
<path d="M511.178 71.9882C507.837 71.9882 504.86 71.4086 502.246 70.2496C499.632 69.0677 497.564 67.3291 496.042 65.0336C494.542 62.7155 493.792 59.8291 493.792 56.3746C493.792 53.4655 494.326 51.0223 495.394 49.045C496.462 47.0677 497.917 45.4768 499.757 44.2723C501.598 43.0677 503.689 42.1586 506.03 41.545C508.394 40.9314 510.871 40.4996 513.462 40.2496C516.507 39.9314 518.962 39.6359 520.826 39.3632C522.689 39.0677 524.042 38.6359 524.882 38.0677C525.723 37.4996 526.144 36.6586 526.144 35.545V35.3405C526.144 33.1814 525.462 31.5109 524.098 30.3291C522.757 29.1473 520.848 28.5564 518.371 28.5564C515.757 28.5564 513.678 29.1359 512.132 30.295C510.587 31.4314 509.564 32.8632 509.064 34.5905L495.632 33.4996C496.314 30.3177 497.655 27.5677 499.655 25.2496C501.655 22.9086 504.235 21.1132 507.394 19.8632C510.576 18.5905 514.257 17.9541 518.439 17.9541C521.348 17.9541 524.132 18.295 526.792 18.9768C529.473 19.6586 531.848 20.7155 533.917 22.1473C536.007 23.5791 537.655 25.42 538.86 27.67C540.064 29.8973 540.667 32.5677 540.667 35.6814V70.9996H526.894V63.7382H526.485C525.644 65.3746 524.519 66.8177 523.11 68.0677C521.701 69.295 520.007 70.2609 518.03 70.9655C516.053 71.6473 513.769 71.9882 511.178 71.9882ZM515.337 61.9655C517.473 61.9655 519.36 61.545 520.996 60.7041C522.632 59.8405 523.917 58.6814 524.848 57.2268C525.78 55.7723 526.246 54.1246 526.246 52.2836V46.7268C525.792 47.0223 525.167 47.295 524.371 47.545C523.598 47.7723 522.723 47.9882 521.746 48.1927C520.769 48.3746 519.792 48.545 518.814 48.7041C517.837 48.8405 516.951 48.9655 516.155 49.0791C514.451 49.3291 512.962 49.7268 511.689 50.2723C510.417 50.8177 509.428 51.5564 508.723 52.4882C508.019 53.3973 507.667 54.5336 507.667 55.8973C507.667 57.8746 508.382 59.3859 509.814 60.4314C511.269 61.4541 513.11 61.9655 515.337 61.9655Z" fill="black"/>
<path d="M458.465 70.9999V18.6362H472.544V27.7726H473.09C474.044 24.5226 475.647 22.0681 477.897 20.409C480.147 18.7271 482.738 17.8862 485.669 17.8862C486.397 17.8862 487.181 17.9317 488.022 18.0226C488.863 18.1135 489.601 18.2385 490.238 18.3976V31.284C489.556 31.0794 488.613 30.8976 487.408 30.7385C486.204 30.5794 485.101 30.4999 484.101 30.4999C481.965 30.4999 480.056 30.9658 478.374 31.8976C476.715 32.8067 475.397 34.0794 474.419 35.7158C473.465 37.3521 472.988 39.2385 472.988 41.3749V70.9999H458.465Z" fill="black"/>
<path d="M423.249 72.0223C417.953 72.0223 413.374 70.8973 409.51 68.6473C405.669 66.3746 402.703 63.2155 400.612 59.17C398.522 55.1018 397.476 50.3859 397.476 45.0223C397.476 39.6132 398.522 34.8859 400.612 30.8405C402.703 26.7723 405.669 23.6132 409.51 21.3632C413.374 19.0905 417.953 17.9541 423.249 17.9541C428.544 17.9541 433.112 19.0905 436.953 21.3632C440.817 23.6132 443.794 26.7723 445.885 30.8405C447.976 34.8859 449.022 39.6132 449.022 45.0223C449.022 50.3859 447.976 55.1018 445.885 59.17C443.794 63.2155 440.817 66.3746 436.953 68.6473C433.112 70.8973 428.544 72.0223 423.249 72.0223ZM423.317 60.7723C425.726 60.7723 427.737 60.0905 429.351 58.7268C430.965 57.3405 432.181 55.4541 432.999 53.0677C433.84 50.6814 434.26 47.9655 434.26 44.92C434.26 41.8746 433.84 39.1586 432.999 36.7723C432.181 34.3859 430.965 32.4996 429.351 31.1132C427.737 29.7268 425.726 29.0336 423.317 29.0336C420.885 29.0336 418.84 29.7268 417.181 31.1132C415.544 32.4996 414.306 34.3859 413.465 36.7723C412.647 39.1586 412.237 41.8746 412.237 44.92C412.237 47.9655 412.647 50.6814 413.465 53.0677C414.306 55.4541 415.544 57.3405 417.181 58.7268C418.84 60.0905 420.885 60.7723 423.317 60.7723Z" fill="black"/>
<path d="M387.956 1.18164V70.9998H373.434V1.18164H387.956Z" fill="black"/>
<path d="M312.684 90.6359V18.6359H327.002V27.4314H327.65C328.286 26.0223 329.206 24.5905 330.411 23.1359C331.638 21.6586 333.229 20.4314 335.184 19.4541C337.161 18.4541 339.615 17.9541 342.547 17.9541C346.365 17.9541 349.888 18.9541 353.115 20.9541C356.343 22.9314 358.922 25.92 360.854 29.92C362.786 33.8973 363.752 38.8859 363.752 44.8859C363.752 50.7268 362.809 55.6586 360.922 59.6814C359.059 63.6814 356.513 66.7155 353.286 68.7836C350.081 70.8291 346.49 71.8518 342.513 71.8518C339.695 71.8518 337.297 71.3859 335.32 70.4541C333.365 69.5223 331.763 68.3518 330.513 66.9427C329.263 65.5109 328.309 64.0677 327.65 62.6132H327.206V90.6359H312.684ZM326.9 44.8177C326.9 47.9314 327.331 50.6473 328.195 52.9655C329.059 55.2837 330.309 57.0905 331.945 58.3859C333.581 59.6586 335.57 60.295 337.911 60.295C340.274 60.295 342.274 59.6473 343.911 58.3518C345.547 57.0336 346.786 55.2155 347.627 52.8973C348.49 50.5564 348.922 47.8632 348.922 44.8177C348.922 41.795 348.502 39.1359 347.661 36.8405C346.82 34.545 345.581 32.7496 343.945 31.4541C342.309 30.1586 340.297 29.5109 337.911 29.5109C335.547 29.5109 333.547 30.1359 331.911 31.3859C330.297 32.6359 329.059 34.4086 328.195 36.7041C327.331 38.9996 326.9 41.7041 326.9 44.8177Z" fill="black"/>
<path d="M225.121 70.9996V18.6359H238.962V27.8746H239.576C240.667 24.8064 242.485 22.3859 245.03 20.6132C247.576 18.8405 250.621 17.9541 254.167 17.9541C257.757 17.9541 260.814 18.8518 263.337 20.6473C265.86 22.42 267.542 24.8291 268.382 27.8746H268.928C269.996 24.8746 271.928 22.4768 274.723 20.6814C277.542 18.8632 280.871 17.9541 284.712 17.9541C289.598 17.9541 293.564 19.5109 296.61 22.6246C299.678 25.7155 301.212 30.1018 301.212 35.7836V70.9996H286.723V38.6473C286.723 35.7382 285.951 33.5564 284.405 32.1018C282.86 30.6473 280.928 29.92 278.61 29.92C275.973 29.92 273.917 30.7609 272.439 32.4427C270.962 34.1018 270.223 36.295 270.223 39.0223V70.9996H256.144V38.3405C256.144 35.7723 255.405 33.7268 253.928 32.2041C252.473 30.6814 250.553 29.92 248.167 29.92C246.553 29.92 245.098 30.3291 243.803 31.1473C242.53 31.9427 241.519 33.0677 240.769 34.5223C240.019 35.9541 239.644 37.6359 239.644 39.5677V70.9996H225.121Z" fill="black"/>
<path d="M177.837 90.6362C175.996 90.6362 174.269 90.4885 172.655 90.1931C171.064 89.9203 169.746 89.568 168.701 89.1362L171.973 78.2953C173.678 78.8181 175.212 79.1021 176.576 79.1476C177.962 79.1931 179.155 78.8749 180.155 78.1931C181.178 77.5112 182.007 76.3521 182.644 74.7158L183.496 72.4999L164.712 18.6362H179.985L190.826 57.0908H191.371L202.314 18.6362H217.689L197.337 76.659C196.36 79.4771 195.03 81.9317 193.348 84.0226C191.689 86.1362 189.587 87.7612 187.041 88.8976C184.496 90.0567 181.428 90.6362 177.837 90.6362Z" fill="black"/>
<path d="M158.533 33.5677L145.238 34.3859C145.01 33.2496 144.522 32.2268 143.772 31.3177C143.022 30.3859 142.033 29.6473 140.806 29.1018C139.601 28.5336 138.158 28.2496 136.476 28.2496C134.226 28.2496 132.328 28.7268 130.783 29.6814C129.238 30.6132 128.465 31.8632 128.465 33.4314C128.465 34.6814 128.965 35.7382 129.965 36.6018C130.965 37.4655 132.681 38.1586 135.113 38.6814L144.59 40.5905C149.681 41.6359 153.476 43.3177 155.976 45.6359C158.476 47.9541 159.726 50.9996 159.726 54.7723C159.726 58.2041 158.715 61.2155 156.692 63.8064C154.692 66.3973 151.942 68.42 148.442 69.8746C144.965 71.3064 140.953 72.0223 136.408 72.0223C129.476 72.0223 123.953 70.5791 119.84 67.6927C115.749 64.7837 113.351 60.8291 112.647 55.8291L126.931 55.0791C127.363 57.1927 128.408 58.8064 130.067 59.92C131.726 61.0109 133.851 61.5564 136.442 61.5564C138.988 61.5564 141.033 61.0677 142.578 60.0905C144.147 59.0905 144.942 57.8064 144.965 56.2382C144.942 54.92 144.385 53.8405 143.294 52.9996C142.203 52.1359 140.522 51.4768 138.249 51.0223L129.181 49.2155C124.067 48.1927 120.26 46.42 117.76 43.8973C115.283 41.3746 114.044 38.1586 114.044 34.2496C114.044 30.8859 114.953 27.9882 116.772 25.5564C118.613 23.1246 121.192 21.2496 124.51 19.9314C127.851 18.6132 131.76 17.9541 136.238 17.9541C142.851 17.9541 148.056 19.3518 151.851 22.1473C155.669 24.9427 157.897 28.7496 158.533 33.5677Z" fill="black"/>
</svg>
